<?xml version="1.0" standalone="no"?>
<!DOCTYPE svg PUBLIC "-//W3C//DTD SVG 20010904//EN"
 "http://www.w3.org/TR/2001/REC-SVG-20010904/DTD/svg10.dtd">
<svg version="1.0" xmlns="http://www.w3.org/2000/svg"
 width="640.000000pt" height="640.000000pt" viewBox="0 0 640.000000 640.000000"
 preserveAspectRatio="xMidYMid meet">
<metadata>
Created by potrace 1.11, written by Peter Selinger 2001-2013
</metadata>
<g transform="translate(0.000000,640.000000) scale(0.100000,-0.100000)"
fill="#000000" stroke="none">
<path d="M2980 5530 c-25 -5 -65 -11 -90 -15 -122 -18 -279 -69 -430 -141
-445 -213 -800 -613 -950 -1074 -21 -63 -44 -149 -51 -190 -7 -41 -14 -84 -17
-95 -3 -11 -6 -638 -8 -1392 l-4 -1373 78 0 78 0 130 126 c71 69 161 156 199
194 l70 69 200 -194 200 -195 190 195 190 195 119 -113 c66 -61 158 -149 205
-194 97 -92 81 -93 183 2 80 74 251 231 298 273 l35 31 190 -195 190 -194 106
102 c58 57 149 145 202 195 l97 93 194 -195 195 -195 85 0 86 0 -4 1373 c-1
754 -6 1390 -10 1412 -66 351 -200 633 -421 884 -115 131 -283 273 -435 368
-149 93 -377 184 -540 217 -41 8 -88 18 -105 21 -44 10 -403 14 -455 5z m-480
-1593 c297 -48 450 -402 283 -654 -149 -225 -477 -254 -662 -58 -84 89 -121
188 -116 312 8 186 150 357 325 392 98 19 98 19 170 8z m1535 -1 c68 -10 181
-74 231 -130 151 -167 154 -399 10 -564 -130 -147 -336 -188 -509 -102 -90 45
-184 155 -217 254 -31 94 -15 228 38 332 53 104 188 199 300 210 31 4 58 8 60
9 3 3 29 0 87 -9z m-1303 -1129 c13 -12 153 -102 194 -123 44 -23 152 -55 215
-62 79 -10 212 8 289 38 29 12 103 53 162 92 60 39 110 69 111 67 2 -2 38 -58
82 -124 44 -66 88 -132 97 -147 l17 -27 -109 -71 c-140 -91 -221 -128 -350
-161 -95 -24 -120 -27 -255 -24 -127 2 -163 7 -236 28 -118 36 -216 82 -336
160 l-102 67 70 107 c39 60 83 127 97 151 29 46 34 48 54 29z"/>
</g>
</svg>
