<?xml version="1.0" encoding="utf-8"?>
<!-- Generator: Adobe Illustrator 16.0.0, SVG Export Plug-In . SVG Version: 6.00 Build 0)  -->
<!DOCTYPE svg PUBLIC "-//W3C//DTD SVG 1.0//EN" "http://www.w3.org/TR/2001/REC-SVG-20010904/DTD/svg10.dtd">
<svg version="1.0" xmlns="http://www.w3.org/2000/svg" xmlns:xlink="http://www.w3.org/1999/xlink" x="0px" y="0px" width="18px"
	 height="120px" viewBox="58.5 580.5 18 120" enable-background="new 58.5 580.5 18 120" xml:space="preserve">
<g id="bg" display="none">
</g>
<g id="icons">
	<path fill-rule="evenodd" clip-rule="evenodd" fill="#191919" d="M63.849,646.152c0.273-0.27,0.576-0.49,0.898-0.666
		c1.796-0.973,4.099-0.455,5.253,1.266l-1.396,1.374c-0.401-0.899-1.396-1.409-2.385-1.192c-0.373,0.082-0.727,0.266-1.016,0.549
		l-2.677,2.635c-0.813,0.799-0.813,2.1,0,2.898c0.812,0.8,2.135,0.8,2.948,0l0.825-0.811c0.75,0.292,1.556,0.409,2.351,0.351
		l-1.822,1.792c-1.562,1.537-4.094,1.537-5.656,0c-1.562-1.536-1.562-4.027,0-5.562L63.849,646.152L63.849,646.152L63.849,646.152z
		 M68.173,641.652l-1.822,1.791c0.795-0.059,1.6,0.059,2.351,0.352l0.825-0.812c0.812-0.8,2.136-0.8,2.948,0
		c0.813,0.8,0.813,2.101,0,2.899l-2.678,2.633c-0.814,0.803-2.14,0.795-2.948,0c-0.188-0.185-0.351-0.416-0.452-0.643L65,649.247
		c0.146,0.219,0.299,0.408,0.495,0.601c0.505,0.497,1.148,0.867,1.889,1.043c0.959,0.227,1.986,0.101,2.869-0.378
		c0.322-0.175,0.625-0.396,0.898-0.665l2.677-2.633c1.562-1.537,1.562-4.027,0.001-5.562
		C72.267,640.115,69.734,640.115,68.173,641.652L68.173,641.652L68.173,641.652z M68.173,641.652"/>
	
		<polyline fill-rule="evenodd" clip-rule="evenodd" fill="none" stroke="#191919" stroke-width="1.6" stroke-miterlimit="10" points="
		71,581.5 64,588.5 71,595.5 	"/>
	
		<polyline fill-rule="evenodd" clip-rule="evenodd" fill="none" stroke="#191919" stroke-width="1.6" stroke-miterlimit="10" points="
		64,611.5 71,618.5 64,625.5 	"/>
	
		<polyline fill-rule="evenodd" clip-rule="evenodd" fill="none" stroke="#191919" stroke-width="1.6" stroke-miterlimit="10" points="
		74.5,671.5 67.5,678.501 60.5,671.5 	"/>
</g>
</svg>
