<?xml version="1.0" encoding="utf-8"?>
<!-- Generator: Adobe Illustrator 16.0.0, SVG Export Plug-In . SVG Version: 6.00 Build 0)  -->
<!DOCTYPE svg PUBLIC "-//W3C//DTD SVG 1.0//EN" "http://www.w3.org/TR/2001/REC-SVG-20010904/DTD/svg10.dtd">
<svg version="1.0" xmlns="http://www.w3.org/2000/svg" xmlns:xlink="http://www.w3.org/1999/xlink" x="0px" y="0px" width="160px"
	 height="320px" viewBox="-217.5 580.5 160 320" enable-background="new -217.5 580.5 160 320" xml:space="preserve">
<g id="bg" display="none">
	<rect x="-217.5" y="580.5" display="inline" fill-rule="evenodd" clip-rule="evenodd" fill="#1D1D1B" width="160" height="320"/>
</g>
<g id="icons">
	<g>
		<path opacity="0.1608" fill="#F4F4F4" enable-background="new    " d="M-194.5,613.5h-5l5,3.41V613.5z M-155.5,613.5h-5v3.41
			L-155.5,613.5z"/>
		<path fill="#F4F4F4" d="M-160.5,606.5h-34v10.41l17,11.59l17-11.59V606.5z"/>
		<path opacity="0.451" fill="#F4F4F4" enable-background="new    " d="M-165.765,606.5l-11.735-8l-11.735,8H-165.765z
			 M-160.5,613.5h5l-5-3.41V613.5z M-199.5,613.5h5v-3.41L-199.5,613.5z"/>
		<path opacity="0.8" fill="#F4F4F4" enable-background="new    " d="M-155.5,613.5l-22,15l22,15V613.5z"/>
		<path opacity="0.6" fill="#F4F4F4" enable-background="new    " d="M-199.5,613.5v30l22-15L-199.5,613.5z"/>
		<path opacity="0.4" fill="#F4F4F4" enable-background="new    " d="M-177.5,628.5l-22,15h44L-177.5,628.5z"/>
	</g>
	<g>
		<path opacity="0.1608" fill="#F4F4F4" enable-background="new    " d="M-114.5,613.5h-5l5,3.41V613.5z M-75.5,613.5h-5v3.41
			L-75.5,613.5z"/>
		<path fill="#F4F4F4" d="M-80.5,606.5h-34v10.41l17,11.59l17-11.59V606.5z"/>
		<path opacity="0.451" fill="#F4F4F4" enable-background="new    " d="M-85.766,606.5l-11.734-8l-11.734,8H-85.766z M-80.5,613.5h5
			l-5-3.41V613.5z M-119.5,613.5h5v-3.41L-119.5,613.5z"/>
		<path opacity="0.8" fill="#F4F4F4" enable-background="new    " d="M-75.5,613.5l-22,15l22,15V613.5z"/>
		<path opacity="0.6" fill="#F4F4F4" enable-background="new    " d="M-119.5,613.5v30l22-15L-119.5,613.5z"/>
		<path opacity="0.4" fill="#F4F4F4" enable-background="new    " d="M-97.5,628.5l-22,15h44L-97.5,628.5z"/>
	</g>
	<path opacity="0.149" fill="#F4F4F4" enable-background="new    " d="M-114.5,643.5l17,17l17-17H-114.5z M-97.5,580.5l-40,40l18,18
		v-25l5-3.41v-3.59h5.266l11.734-8l11.734,8h5.266v3.59l5,3.41v25l18-18L-97.5,580.5z"/>
	<path opacity="0.149" fill="#F4F4F4" enable-background="new    " d="M-106.5,685.5l10-10h9v10h-9v9h9v10h-9v21h-10v-21h-7v-10h7
		V685.5z M-97.5,660.5l-40,40l40,40l40-40L-97.5,660.5z"/>
	<path opacity="0.149" fill="#F4F4F4" enable-background="new    " d="M-114.5,757.5l-23,23l40,40l40-40l-23-23v11.192V780
		l-8.38,3.255v10.08l4.603,11.165h-4.604l-4.103-19.655l-0.621,0.24l0.002,19.415l-3.367-16.109l-3.363,16.109l-0.001-19.005
		l-0.694-0.271l-4.026,19.275h-4.604l4.605-11.165v-9.675L-114.5,780v-11.308V757.5z M-97.5,740.5l-15.561,15.561l15.561,6.035
		l15.561-6.035L-97.5,740.5z"/>
	<g>
		<path opacity="0.6" fill="#F4F4F4" enable-background="new    " d="M-190.722,768.469h26.444v9.081l-13.222,5.277l-13.222-5.277
			V768.469z M-173.604,804.5l-0.001-19.415l0.615-0.24l4.108,19.655l0.002-21.25l8.38-3.25v-11.308l-17-6.597l-17,6.597V780
			l9.445,3.665l0,20.835l4.026-19.275l0.695,0.271l0.001,19.005l3.363-16.115L-173.604,804.5z"/>
		<path opacity="0.8" fill="#F4F4F4" enable-background="new    " d="M-189.66,804.5l9.326-22.615l-4.722,22.615H-189.66z"/>
		<path opacity="0.8" fill="#F4F4F4" enable-background="new    " d="M-164.278,804.5l-9.326-22.615l4.722,22.615H-164.278z"/>
		<path opacity="0.8" fill="#F4F4F4" enable-background="new    " d="M-194.5,755.5v13.192l17-6.598L-194.5,755.5z"/>
		<path opacity="0.8" fill="#F4F4F4" enable-background="new    " d="M-160.5,768.5v-13l-17,6.501L-160.5,768.5z"/>
		<path fill="#F4F4F4" d="M-171.833,772.461l2.833,3.77h-5.667L-171.833,772.461z M-183.167,772.461l2.833,3.77H-186
			L-183.167,772.461z M-190.5,768.5v8.855l13,5.145l13-5.145V768.5H-190.5z"/>
	</g>
	<g>
		<path opacity="0.6" fill="#F4F4F4" enable-background="new    " d="M-110.723,768.469h26.445v9.081l-13.223,5.277l-13.223-5.277
			V768.469z M-93.604,804.5l-0.002-19.415l0.615-0.24l4.108,19.655l0.002-21.25l8.38-3.25v-11.308l-17-6.597l-17,6.597V780
			l9.445,3.665l-0.001,20.835l4.026-19.275l0.694,0.271l0.001,19.005l3.363-16.115L-93.604,804.5z"/>
		<path opacity="0.8" fill="#F4F4F4" enable-background="new    " d="M-109.66,804.5l9.326-22.615l-4.722,22.615H-109.66z"/>
		<path opacity="0.8" fill="#F4F4F4" enable-background="new    " d="M-84.277,804.5l-9.326-22.615l4.722,22.615H-84.277z"/>
		<path opacity="0.8" fill="#F4F4F4" enable-background="new    " d="M-114.5,755.5v13.192l17-6.598L-114.5,755.5z"/>
		<path opacity="0.8" fill="#F4F4F4" enable-background="new    " d="M-80.5,768.5v-13l-17,6.501L-80.5,768.5z"/>
		<path fill="#F4F4F4" d="M-91.834,772.461l2.834,3.77h-5.666L-91.834,772.461z M-103.166,772.461l2.832,3.77H-106L-103.166,772.461
			z M-110.5,768.5v8.855l13,5.145l13-5.145V768.5H-110.5z"/>
	</g>
	<g>
		<path opacity="0.6314" fill="#F4F4F4" enable-background="new    " d="M-164.438,883.5h-26.125l13.062-10.895L-164.438,883.5z"/>
		<path fill="#F4F4F4" d="M-196.5,837.5l19,36.316V837.5H-196.5z"/>
		<path opacity="0.5098" fill="#F4F4F4" enable-background="new    " d="M-158.5,837.5l-19,36.316V837.5H-158.5z"/>
		<path fill="#F4F4F4" d="M-168.035,880.5l-9.465-7.895l-9.465,7.895H-168.035z"/>
	</g>
	<g>
		<path opacity="0.6314" fill="#F4F4F4" enable-background="new    " d="M-84.438,883.5h-26.125l13.062-10.895L-84.438,883.5z"/>
		<path fill="#F4F4F4" d="M-116.5,837.5l19,36.316V837.5H-116.5z"/>
		<path opacity="0.5098" fill="#F4F4F4" enable-background="new    " d="M-78.5,837.5l-19,36.316V837.5H-78.5z"/>
		<path fill="#F4F4F4" d="M-88.035,880.5l-9.465-7.895l-9.465,7.895H-88.035z"/>
	</g>
	<path opacity="0.149" fill="#F4F4F4" enable-background="new    " d="M-115.814,838.814L-137.5,860.5l40,40l40-40l-21.686-21.686
		l-17.875,34.16l12.623,10.525h-26.125l12.623-10.525L-115.814,838.814z M-97.5,820.5l-17,17h17h17L-97.5,820.5z"/>
	<g>
		<path opacity="0.6" fill="#F4F4F4" enable-background="new    " d="M-186.5,685.5h10v40h-10V685.5z"/>
		<path fill="#F4F4F4" d="M-176.5,685.5h9v-10h-9l-10,10H-176.5z"/>
		<path fill="#F4F4F4" d="M-178.5,704.5h1h10v-10h-11h-15v10H-178.5z"/>
	</g>
	<g>
		<path opacity="0.6" fill="#F4F4F4" enable-background="new    " d="M-106.5,685.5h10v40h-10V685.5z"/>
		<path fill="#F4F4F4" d="M-96.5,685.5h9v-10h-9l-10,10H-96.5z"/>
		<path fill="#F4F4F4" d="M-98.5,704.5h1h10v-10h-11h-15v10H-98.5z"/>
	</g>
</g>
</svg>
